{
  "accessors": [
    {
      "bufferView": 2,
      "componentType": 5126,
      "count": 65532,
      "max": [
        0.5,
        -0.18726900219917297,
        0.5
      ],
      "min": [
        -0.5,
        -0.30666598677635193,
        -0.5
      ],
      "type": "VEC3"
    },
    {
      "bufferView": 2,
      "byteOffset": 786384,
      "componentType": 5126,
      "count": 65532,
      "max": [
        0.9399462342262268,
        -0.27366116642951965,
        0.9082317352294922
      ],
      "min": [
        -0.8855668902397156,
        -0.9999995827674866,
        -0.8596450686454773
      ],
      "type": "VEC3"
    },
    {
      "bufferView": 3,
      "componentType": 5126,
      "count": 65532,
      "max": [
        1.0,
        0.9535359144210815,
        0.00011055303912144154,
        1.0
      ],
      "min": [
        0.3012796640396118,
        -0.9080457091331482,
        -7.617773371748626e-05,
        1.0
      ],
      "type": "VEC4"
    },
    {
      "bufferView": 1,
      "componentType": 5126,
      "count": 65532,
      "max": [
        1.0,
        1.0
      ],
      "min": [
        0.0,
        0.0
      ],
      "type": "VEC2"
    },
    {
      "bufferView": 0,
      "componentType": 5125,
      "count": 315558,
      "type": "SCALAR"
    },
    {
      "bufferView": 2,
      "byteOffset": 1572768,
      "componentType": 5126,
      "count": 65532,
      "max": [
        0.5,
        -0.18768799304962158,
        0.48660001158714294
      ],
      "min": [
        -0.498324990272522,
        -0.30649200081825256,
        -0.4581240117549896
      ],
      "type": "VEC3"
    },
    {
      "bufferView": 2,
      "byteOffset": 2359152,
      "componentType": 5126,
      "count": 65532,
      "max": [
        0.9156252145767212,
        -0.31583207845687866,
        0.8684590458869934
      ],
      "min": [
        -0.882867693901062,
        -0.9999931454658508,
        -0.9331876039505005
      ],
      "type": "VEC3"
    },
    {
      "bufferView": 3,
      "byteOffset": 1048512,
      "componentType": 5126,
      "count": 65532,
      "max": [
        1.0,
        0.9319582581520081,
        0.00011194968828931451,
        1.0
      ],
      "min": [
        0.3625656068325043,
        -0.8952011466026306,
        -7.744623871985823e-05,
        1.0
      ],
      "type": "VEC4"
    },
    {
      "bufferView": 1,
      "byteOffset": 524256,
      "componentType": 5126,
      "count": 65532,
      "max": [
        1.0,
        0.9865999817848206
      ],
      "min": [
        0.0016749999485909939,
        0.04187599942088127
      ],
      "type": "VEC2"
    },
    {
      "bufferView": 0,
      "byteOffset": 1262232,
      "componentType": 5125,
      "count": 293334,
      "type": "SCALAR"
    },
    {
      "bufferView": 2,
      "byteOffset": 3145536,
      "componentType": 5126,
      "count": 65532,
      "max": [
        0.5,
        -0.18727299571037292,
        0.39949700236320496
      ],
      "min": [
        -0.498324990272522,
        -0.29718300700187683,
        -0.17504200339317322
      ],
      "type": "VEC3"
    },
    {
      "bufferView": 2,
      "byteOffset": 3931920,
      "componentType": 5126,
      "count": 65532,
      "max": [
        0.9399462342262268,
        -0.30655136704444885,
        0.8802460432052612
      ],
      "min": [
        -0.8855668902397156,
        -0.9999995827674866,
        -0.8635782599449158
      ],
      "type": "VEC3"
    },
    {
      "bufferView": 3,
      "byteOffset": 2097024,
      "componentType": 5126,
      "count": 65532,
      "max": [
        1.0,
        0.9411526322364807,
        7.661644485779107e-05,
        1.0
      ],
      "min": [
        0.33798205852508545,
        -0.9080457091331482,
        -6.705543637508526e-05,
        1.0
      ],
      "type": "VEC4"
    },
    {
      "bufferView": 1,
      "byteOffset": 1048512,
      "componentType": 5126,
      "count": 65532,
      "max": [
        1.0,
        0.8994969725608826
      ],
      "min": [
        0.0016749999485909939,
        0.3249579966068268
      ],
      "type": "VEC2"
    },
    {
      "bufferView": 0,
      "byteOffset": 2435568,
      "componentType": 5125,
      "count": 310503,
      "type": "SCALAR"
    },
    {
      "bufferView": 2,
      "byteOffset": 4718304,
      "componentType": 5126,
      "count": 65532,
      "max": [
        0.5,
        -0.1886969953775406,
        0.2772189974784851
      ],
      "min": [
        -0.498324990272522,
        -0.3065589964389801,
        -0.5
      ],
      "type": "VEC3"
    },
    {
      "bufferView": 2,
      "byteOffset": 5504688,
      "componentType": 5126,
      "count": 65532,
      "max": [
        0.8728666305541992,
        -0.337398499250412,
        0.9409705400466919
      ],
      "min": [
        -0.9205408096313477,
        -0.9999933838844299,
        -0.8715738654136658
      ],
      "type": "VEC3"
    },
    {
      "bufferView": 3,
      "byteOffset": 3145536,
      "componentType": 5126,
      "count": 65532,
      "max": [
        1.0,
        0.9121807813644409,
        0.00010869285324588418,
        1.0
      ],
      "min": [
        0.3874751925468445,
        -0.9218801259994507,
        -8.144858293235302e-05,
        1.0
      ],
      "type": "VEC4"
    },
    {
      "bufferView": 1,
      "byteOffset": 1572768,
      "componentType": 5126,
      "count": 65532,
      "max": [
        1.0,
        0.7772189974784851
      ],
      "min": [
        0.0016749999485909939,
        0.0
      ],
      "type": "VEC2"
    },
    {
      "bufferView": 0,
      "byteOffset": 3677580,
      "componentType": 5125,
      "count": 308919,
      "type": "SCALAR"
    },
    {
      "bufferView": 2,
      "byteOffset": 6291072,
      "componentType": 5126,
      "count": 65532,
      "max": [
        0.5,
        -0.21959899365901947,
        -0.14321599900722504
      ],
      "min": [
        -0.49665001034736633,
        -0.3061160147190094,
        -0.5
      ],
      "type": "VEC3"
    },
    {
      "bufferView": 2,
      "byteOffset": 7077456,
      "componentType": 5126,
      "count": 65532,
      "max": [
        0.9056465029716492,
        -0.3283073306083679,
        0.8663105368614197
      ],
      "min": [
        -0.9365417957305908,
        -0.9999937415122986,
        -0.9135282635688782
      ],
      "type": "VEC3"
    },
    {
      "bufferView": 3,
      "byteOffset": 4194048,
      "componentType": 5126,
      "count": 65532,
      "max": [
        1.0,
        0.9228895902633667,
        0.00010388407099526376,
        1.0
      ],
      "min": [
        0.3378693759441376,
        -0.9411930441856384,
        -6.695739284623414e-05,
        1.0
      ],
      "type": "VEC4"
    },
    {
      "bufferView": 1,
      "byteOffset": 2097024,
      "componentType": 5126,
      "count": 65532,
      "max": [
        1.0,
        0.35678398609161377
      ],
      "min": [
        0.0033499998971819878,
        0.0
      ],
      "type": "VEC2"
    },
    {
      "bufferView": 0,
      "byteOffset": 4913256,
      "componentType": 5125,
      "count": 320121,
      "type": "SCALAR"
    },
    {
      "bufferView": 2,
      "byteOffset": 7863840,
      "componentType": 5126,
      "count": 65532,
      "max": [
        0.5,
        -0.2037159949541092,
        0.18844200670719147
      ],
      "min": [
        -0.498324990272522,
        -0.30661100149154663,
        -0.5
      ],
      "type": "VEC3"
    },
    {
      "bufferView": 2,
      "byteOffset": 8650224,
      "componentType": 5126,
      "count": 65532,
      "max": [
        0.9056465029716492,
        -0.30213886499404907,
        0.9018306136131287
      ],
      "min": [
        -0.9461761116981506,
        -0.9999985098838806,
        -0.862978994846344
      ],
      "type": "VEC3"
    },
    {
      "bufferView": 3,
      "byteOffset": 5242560,
      "componentType": 5126,
      "count": 65532,
      "max": [
        1.0,
        0.920340359210968,
        6.226819823496044e-05,
        1.0
      ],
      "min": [
        0.3127148151397705,
        -0.9498471617698669,
        -8.144858293235302e-05,
        1.0
      ],
      "type": "VEC4"
    },
    {
      "bufferView": 1,
      "byteOffset": 2621280,
      "componentType": 5126,
      "count": 65532,
      "max": [
        1.0,
        0.6884419918060303
      ],
      "min": [
        0.0016749999485909939,
        0.0
      ],
      "type": "VEC2"
    },
    {
      "bufferView": 0,
      "byteOffset": 6193740,
      "componentType": 5125,
      "count": 329691,
      "type": "SCALAR"
    },
    {
      "bufferView": 2,
      "byteOffset": 9436608,
      "componentType": 5126,
      "count": 57290,
      "max": [
        0.5,
        -0.18886299431324005,
        0.23031799495220184
      ],
      "min": [
        -0.498324990272522,
        -0.3061470091342926,
        -0.09966500103473663
      ],
      "type": "VEC3"
    },
    {
      "bufferView": 2,
      "byteOffset": 10124088,
      "componentType": 5126,
      "count": 57290,
      "max": [
        0.9030484557151794,
        -0.3406793475151062,
        0.8905748128890991
      ],
      "min": [
        -0.8572744131088257,
        -0.9999944567680359,
        -0.8635782599449158
      ],
      "type": "VEC3"
    },
    {
      "bufferView": 3,
      "byteOffset": 6291072,
      "componentType": 5126,
      "count": 57290,
      "max": [
        1.0,
        0.9078013300895691,
        7.989770529093221e-05,
        1.0
      ],
      "min": [
        0.38615652918815613,
        -0.9224333167076111,
        -7.902452489361167e-05,
        1.0
      ],
      "type": "VEC4"
    },
    {
      "bufferView": 1,
      "byteOffset": 3145536,
      "componentType": 5126,
      "count": 57290,
      "max": [
        1.0,
        0.730318009853363
      ],
      "min": [
        0.0016749999485909939,
        0.40033501386642456
      ],
      "type": "VEC2"
    },
    {
      "bufferView": 0,
      "byteOffset": 7512504,
      "componentType": 5125,
      "count": 260328,
      "type": "SCALAR"
    }
  ],
  "asset": {
    "extras": {
      "author": "artfromheath (https://sketchfab.com/artfromheath)",
      "license": "CC-BY-4.0 (http://creativecommons.org/licenses/by/4.0/)",
      "source": "https://sketchfab.com/3d-models/tec-glacial-iceflats-9cc3e45bc7d24231b2cea8b75216feb1",
      "title": "TEC - Glacial Iceflats"
    },
    "generator": "Sketchfab-10.46.0",
    "version": "2.0"
  },
  "bufferViews": [
    {
      "buffer": 0,
      "byteLength": 8553816,
      "name": "floatBufferViews",
      "target": 34963
    },
    {
      "buffer": 0,
      "byteLength": 3603856,
      "byteOffset": 8553816,
      "byteStride": 8,
      "name": "floatBufferViews",
      "target": 34962
    },
    {
      "buffer": 0,
      "byteLength": 10811568,
      "byteOffset": 12157672,
      "byteStride": 12,
      "name": "floatBufferViews",
      "target": 34962
    },
    {
      "buffer": 0,
      "byteLength": 7207712,
      "byteOffset": 22969240,
      "byteStride": 16,
      "name": "floatBufferViews",
      "target": 34962
    }
  ],
  "buffers": [
    {
      "byteLength": 30176952,
      "uri": "scene.bin"
    }
  ],
  "images": [
    {
      "uri": "textures/material_0_baseColor.png"
    },
    {
      "uri": "textures/material_0_normal.png"
    }
  ],
  "materials": [
    {
      "doubleSided": true,
      "name": "material_0",
      "normalTexture": {
        "index": 1
      },
      "pbrMetallicRoughness": {
        "baseColorTexture": {
          "index": 0
        },
        "metallicFactor": 0.0,
        "roughnessFactor": 0.46900985376408943
      }
    }
  ],
  "meshes": [
    {
      "name": "Object_0",
      "primitives": [
        {
          "attributes": {
            "NORMAL": 1,
            "POSITION": 0,
            "TANGENT": 2,
            "TEXCOORD_0": 3
          },
          "indices": 4,
          "material": 0,
          "mode": 4
        }
      ]
    },
    {
      "name": "Object_1",
      "primitives": [
        {
          "attributes": {
            "NORMAL": 6,
            "POSITION": 5,
            "TANGENT": 7,
            "TEXCOORD_0": 8
          },
          "indices": 9,
          "material": 0,
          "mode": 4
        }
      ]
    },
    {
      "name": "Object_2",
      "primitives": [
        {
          "attributes": {
            "NORMAL": 11,
            "POSITION": 10,
            "TANGENT": 12,
            "TEXCOORD_0": 13
          },
          "indices": 14,
          "material": 0,
          "mode": 4
        }
      ]
    },
    {
      "name": "Object_3",
      "primitives": [
        {
          "attributes": {
            "NORMAL": 16,
            "POSITION": 15,
            "TANGENT": 17,
            "TEXCOORD_0": 18
          },
          "indices": 19,
          "material": 0,
          "mode": 4
        }
      ]
    },
    {
      "name": "Object_4",
      "primitives": [
        {
          "attributes": {
            "NORMAL": 21,
            "POSITION": 20,
            "TANGENT": 22,
            "TEXCOORD_0": 23
          },
          "indices": 24,
          "material": 0,
          "mode": 4
        }
      ]
    },
    {
      "name": "Object_5",
      "primitives": [
        {
          "attributes": {
            "NORMAL": 26,
            "POSITION": 25,
            "TANGENT": 27,
            "TEXCOORD_0": 28
          },
          "indices": 29,
          "material": 0,
          "mode": 4
        }
      ]
    },
    {
      "name": "Object_6",
      "primitives": [
        {
          "attributes": {
            "NORMAL": 31,
            "POSITION": 30,
            "TANGENT": 32,
            "TEXCOORD_0": 33
          },
          "indices": 34,
          "material": 0,
          "mode": 4
        }
      ]
    }
  ],
  "nodes": [
    {
      "children": [
        1
      ],
      "matrix": [
        1.0,
        0.0,
        0.0,
        0.0,
        0.0,
        -1.0,
        0.0,
        0.0,
        0.0,
        0.0,
        -1.0,
        0.0,
        0.0,
        -0.24696761369705206,
        0.24696733057498926,
        1.0
      ],
      "name": "Sketchfab_model"
    },
    {
      "children": [
        2,
        3,
        4,
        5,
        6,
        7,
        8
      ],
      "name": "GlacialIceflats_obj.obj.cleaner.materialmerger.gles"
    },
    {
      "mesh": 0,
      "name": "Object_2"
    },
    {
      "mesh": 1,
      "name": "Object_3"
    },
    {
      "mesh": 2,
      "name": "Object_4"
    },
    {
      "mesh": 3,
      "name": "Object_5"
    },
    {
      "mesh": 4,
      "name": "Object_6"
    },
    {
      "mesh": 5,
      "name": "Object_7"
    },
    {
      "mesh": 6,
      "name": "Object_8"
    }
  ],
  "samplers": [
    {
      "magFilter": 9729,
      "minFilter": 9987,
      "wrapS": 10497,
      "wrapT": 10497
    }
  ],
  "scene": 0,
  "scenes": [
    {
      "name": "Sketchfab_Scene",
      "nodes": [
        0
      ]
    }
  ],
  "textures": [
    {
      "sampler": 0,
      "source": 0
    },
    {
      "sampler": 0,
      "source": 1
    }
  ]
}
